<?xml version="1.0" encoding="UTF-8" standalone="no"?>
<!DOCTYPE svg PUBLIC "-//W3C//DTD SVG 1.1//EN"
 "http://www.w3.org/Graphics/SVG/1.1/DTD/svg11.dtd">
<!-- Generated by graphviz version 2.43.0 (0)
 -->
<!-- Title: sourcetree Pages: 1 -->
<svg width="616pt" height="260pt"
 viewBox="0.00 0.00 615.50 260.00" xmlns="http://www.w3.org/2000/svg" xmlns:xlink="http://www.w3.org/1999/xlink">
<g id="graph0" class="graph" transform="scale(1 1) rotate(0) translate(4 256)">
<title>sourcetree</title>
<polygon fill="white" stroke="transparent" points="-4,4 -4,-256 611.5,-256 611.5,4 -4,4"/>
<!-- MulleObjCJSMNFoundation -->
<g id="node1" class="node">
<title>MulleObjCJSMNFoundation</title>
<polygon fill="yellow" stroke="black" points="474.5,-252 260.5,-252 260.5,-216 474.5,-216 474.5,-252"/>
<text text-anchor="middle" x="367.5" y="-230.3" font-family="Times,serif" font-size="14.00">MulleObjCJSMNFoundation</text>
</g>
<!-- mulle&#45;objc&#45;list -->
<g id="node2" class="node">
<title>mulle&#45;objc&#45;list</title>
<polygon fill="lightgrey" stroke="black" points="247,-180 130,-180 130,-144 247,-144 247,-180"/>
<text text-anchor="middle" x="188.5" y="-158.3" font-family="Times,serif" font-size="14.00">mulle&#45;objc&#45;list</text>
</g>
<!-- MulleObjCJSMNFoundation&#45;&gt;mulle&#45;objc&#45;list -->
<g id="edge1" class="edge">
<title>MulleObjCJSMNFoundation&#45;&gt;mulle&#45;objc&#45;list</title>
<path fill="none" stroke="black" d="M323.71,-215.88C298.92,-206.18 267.72,-193.98 241.54,-183.74"/>
<polygon fill="black" stroke="black" points="242.73,-180.45 232.15,-180.07 240.18,-186.97 242.73,-180.45"/>
</g>
<!-- MulleObjCPlistFoundation -->
<g id="node3" class="node">
<title>MulleObjCPlistFoundation</title>
<polygon fill="lightgrey" stroke="black" points="470,-180 265,-180 265,-144 470,-144 470,-180"/>
<text text-anchor="middle" x="367.5" y="-158.3" font-family="Times,serif" font-size="14.00">MulleObjCPlistFoundation</text>
</g>
<!-- MulleObjCJSMNFoundation&#45;&gt;MulleObjCPlistFoundation -->
<g id="edge2" class="edge">
<title>MulleObjCJSMNFoundation&#45;&gt;MulleObjCPlistFoundation</title>
<path fill="none" stroke="black" d="M367.5,-215.7C367.5,-207.98 367.5,-198.71 367.5,-190.11"/>
<polygon fill="black" stroke="black" points="371,-190.1 367.5,-180.1 364,-190.1 371,-190.1"/>
</g>
<!-- src/jsmn.h -->
<g id="node4" class="node">
<title>src/jsmn.h</title>
<polygon fill="lightgrey" stroke="black" points="579,-180 488,-180 488,-144 579,-144 579,-180"/>
<text text-anchor="middle" x="533.5" y="-158.3" font-family="Times,serif" font-size="14.00">src/jsmn.h</text>
</g>
<!-- MulleObjCJSMNFoundation&#45;&gt;src/jsmn.h -->
<g id="edge3" class="edge">
<title>MulleObjCJSMNFoundation&#45;&gt;src/jsmn.h</title>
<path fill="none" stroke="black" d="M408.11,-215.88C430.9,-206.26 459.53,-194.19 483.67,-184.01"/>
<polygon fill="black" stroke="black" points="485.17,-187.18 493.02,-180.07 482.45,-180.73 485.17,-187.18"/>
</g>
<!-- MulleObjCStandardFoundation -->
<g id="node5" class="node">
<title>MulleObjCStandardFoundation</title>
<polygon fill="lightgrey" stroke="black" points="487,-108 248,-108 248,-72 487,-72 487,-108"/>
<text text-anchor="middle" x="367.5" y="-86.3" font-family="Times,serif" font-size="14.00">MulleObjCStandardFoundation</text>
</g>
<!-- MulleObjCPlistFoundation&#45;&gt;MulleObjCStandardFoundation -->
<g id="edge4" class="edge">
<title>MulleObjCPlistFoundation&#45;&gt;MulleObjCStandardFoundation</title>
<path fill="none" stroke="black" d="M367.5,-143.7C367.5,-135.98 367.5,-126.71 367.5,-118.11"/>
<polygon fill="black" stroke="black" points="371,-118.1 367.5,-108.1 364,-118.1 371,-118.1"/>
</g>
<!-- MulleObjCContainerFoundation -->
<g id="node6" class="node">
<title>MulleObjCContainerFoundation</title>
<polygon fill="lightgrey" stroke="black" points="243,-36 0,-36 0,0 243,0 243,-36"/>
<text text-anchor="middle" x="121.5" y="-14.3" font-family="Times,serif" font-size="14.00">MulleObjCContainerFoundation</text>
</g>
<!-- MulleObjCStandardFoundation&#45;&gt;MulleObjCContainerFoundation -->
<g id="edge5" class="edge">
<title>MulleObjCStandardFoundation&#45;&gt;MulleObjCContainerFoundation</title>
<path fill="none" stroke="black" d="M307.64,-71.97C272.52,-61.97 227.98,-49.3 191.27,-38.85"/>
<polygon fill="black" stroke="black" points="192.21,-35.48 181.63,-36.11 190.29,-42.21 192.21,-35.48"/>
</g>
<!-- MulleObjCValueFoundation -->
<g id="node7" class="node">
<title>MulleObjCValueFoundation</title>
<polygon fill="lightgrey" stroke="black" points="473.5,-36 261.5,-36 261.5,0 473.5,0 473.5,-36"/>
<text text-anchor="middle" x="367.5" y="-14.3" font-family="Times,serif" font-size="14.00">MulleObjCValueFoundation</text>
</g>
<!-- MulleObjCStandardFoundation&#45;&gt;MulleObjCValueFoundation -->
<g id="edge6" class="edge">
<title>MulleObjCStandardFoundation&#45;&gt;MulleObjCValueFoundation</title>
<path fill="none" stroke="black" d="M367.5,-71.7C367.5,-63.98 367.5,-54.71 367.5,-46.11"/>
<polygon fill="black" stroke="black" points="371,-46.1 367.5,-36.1 364,-46.1 371,-46.1"/>
</g>
<!-- mulle&#45;unicode -->
<g id="node8" class="node">
<title>mulle&#45;unicode</title>
<polygon fill="lightgrey" stroke="black" points="607.5,-36 491.5,-36 491.5,0 607.5,0 607.5,-36"/>
<text text-anchor="middle" x="549.5" y="-14.3" font-family="Times,serif" font-size="14.00">mulle&#45;unicode</text>
</g>
<!-- MulleObjCStandardFoundation&#45;&gt;mulle&#45;unicode -->
<g id="edge7" class="edge">
<title>MulleObjCStandardFoundation&#45;&gt;mulle&#45;unicode</title>
<path fill="none" stroke="black" d="M412.02,-71.88C437.23,-62.18 468.95,-49.98 495.57,-39.74"/>
<polygon fill="black" stroke="black" points="497.05,-42.92 505.12,-36.07 494.53,-36.39 497.05,-42.92"/>
</g>
</g>
</svg>
