<?xml version="1.0" encoding="UTF-8" standalone="no"?>
<!DOCTYPE svg PUBLIC "-//W3C//DTD SVG 1.1//EN"
 "http://www.w3.org/Graphics/SVG/1.1/DTD/svg11.dtd">
<!-- Generated by graphviz version 2.43.0 (0)
 -->
<!-- Title: sourcetree Pages: 1 -->
<svg width="3090pt" height="332pt"
 viewBox="0.00 0.00 3090.00 332.00" xmlns="http://www.w3.org/2000/svg" xmlns:xlink="http://www.w3.org/1999/xlink">
<g id="graph0" class="graph" transform="scale(1 1) rotate(0) translate(4 328)">
<title>sourcetree</title>
<polygon fill="white" stroke="transparent" points="-4,4 -4,-328 3086,-328 3086,4 -4,4"/>
<!-- MulleObjCJSMNFoundation -->
<g id="node1" class="node">
<title>MulleObjCJSMNFoundation</title>
<polygon fill="yellow" stroke="black" points="1589,-324 1375,-324 1375,-288 1589,-288 1589,-324"/>
<text text-anchor="middle" x="1482" y="-302.3" font-family="Times,serif" font-size="14.00">MulleObjCJSMNFoundation</text>
</g>
<!-- jsmn.h -->
<g id="node2" class="node">
<title>jsmn.h</title>
<g id="a_node2"><a xlink:href="https://raw.githubusercontent.com/mulle-nat//jsmn" xlink:title="jsmn.h">
<polygon fill="lightgrey" stroke="black" points="1446.5,-252 1381.5,-252 1381.5,-216 1446.5,-216 1446.5,-252"/>
<text text-anchor="middle" x="1414" y="-230.3" font-family="Times,serif" font-size="14.00">jsmn.h</text>
</a>
</g>
</g>
<!-- MulleObjCJSMNFoundation&#45;&gt;jsmn.h -->
<g id="edge14" class="edge">
<title>MulleObjCJSMNFoundation&#45;&gt;jsmn.h</title>
<path fill="none" stroke="black" d="M1465.19,-287.7C1456.87,-279.14 1446.69,-268.66 1437.61,-259.3"/>
<polygon fill="black" stroke="black" points="1440.09,-256.84 1430.62,-252.1 1435.07,-261.72 1440.09,-256.84"/>
</g>
<!-- MulleFoundationBase -->
<g id="node4" class="node">
<title>MulleFoundationBase</title>
<g id="a_node4"><a xlink:href="https://github.com/MulleFoundation/MulleFoundationBase" xlink:title="MulleFoundationBase">
<polygon fill="lightgrey" stroke="black" points="1637,-252 1465,-252 1465,-216 1637,-216 1637,-252"/>
<text text-anchor="middle" x="1551" y="-230.3" font-family="Times,serif" font-size="14.00">MulleFoundationBase</text>
</a>
</g>
</g>
<!-- MulleObjCJSMNFoundation&#45;&gt;MulleFoundationBase -->
<g id="edge15" class="edge">
<title>MulleObjCJSMNFoundation&#45;&gt;MulleFoundationBase</title>
<path fill="none" stroke="black" d="M1499.06,-287.7C1507.5,-279.14 1517.82,-268.66 1527.04,-259.3"/>
<polygon fill="black" stroke="black" points="1529.61,-261.68 1534.14,-252.1 1524.63,-256.77 1529.61,-261.68"/>
</g>
<!-- mulle&#45;core -->
<g id="node3" class="node">
<title>mulle&#45;core</title>
<g id="a_node3"><a xlink:href="https://github.com/mulle-core/mulle-core" xlink:title="mulle&#45;core">
<polygon fill="lightgrey" stroke="black" points="408,-36 316,-36 316,0 408,0 408,-36"/>
<text text-anchor="middle" x="362" y="-14.3" font-family="Times,serif" font-size="14.00">mulle&#45;core</text>
</a>
</g>
</g>
<!-- MulleObjC -->
<g id="node5" class="node">
<title>MulleObjC</title>
<g id="a_node5"><a xlink:href="https://github.com/mulle-objc/MulleObjC" xlink:title="MulleObjC">
<polygon fill="lightgrey" stroke="black" points="244,-180 152,-180 152,-144 244,-144 244,-180"/>
<text text-anchor="middle" x="198" y="-158.3" font-family="Times,serif" font-size="14.00">MulleObjC</text>
</a>
</g>
</g>
<!-- MulleFoundationBase&#45;&gt;MulleObjC -->
<g id="edge1" class="edge">
<title>MulleFoundationBase&#45;&gt;MulleObjC</title>
<path fill="none" stroke="black" d="M1464.87,-217.02C1461.88,-216.64 1458.92,-216.3 1456,-216 927.77,-161.13 783.27,-265.05 254.41,-179.72"/>
<polygon fill="black" stroke="black" points="254.66,-176.22 244.22,-178.06 253.53,-183.12 254.66,-176.22"/>
</g>
<!-- MulleObjCArchiverFoundation -->
<g id="node6" class="node">
<title>MulleObjCArchiverFoundation</title>
<g id="a_node6"><a xlink:href="https://github.com/MulleFoundation/MulleObjCArchiverFoundation@*" xlink:title="MulleObjCArchiverFoundation">
<polygon fill="lightgrey" stroke="black" points="495.5,-180 262.5,-180 262.5,-144 495.5,-144 495.5,-180"/>
<text text-anchor="middle" x="379" y="-158.3" font-family="Times,serif" font-size="14.00">MulleObjCArchiverFoundation</text>
</a>
</g>
</g>
<!-- MulleFoundationBase&#45;&gt;MulleObjCArchiverFoundation -->
<g id="edge2" class="edge">
<title>MulleFoundationBase&#45;&gt;MulleObjCArchiverFoundation</title>
<path fill="none" stroke="black" d="M1464.86,-217.05C1461.88,-216.67 1458.92,-216.31 1456,-216 1038.76,-170.99 928.13,-215.61 505.69,-180"/>
<polygon fill="black" stroke="black" points="505.92,-176.5 495.66,-179.14 505.32,-183.48 505.92,-176.5"/>
</g>
<!-- MulleObjCContainerFoundation -->
<g id="node7" class="node">
<title>MulleObjCContainerFoundation</title>
<g id="a_node7"><a xlink:href="https://github.com/MulleFoundation/MulleObjCContainerFoundation@*" xlink:title="MulleObjCContainerFoundation">
<polygon fill="lightgrey" stroke="black" points="756.5,-180 513.5,-180 513.5,-144 756.5,-144 756.5,-180"/>
<text text-anchor="middle" x="635" y="-158.3" font-family="Times,serif" font-size="14.00">MulleObjCContainerFoundation</text>
</a>
</g>
</g>
<!-- MulleFoundationBase&#45;&gt;MulleObjCContainerFoundation -->
<g id="edge3" class="edge">
<title>MulleFoundationBase&#45;&gt;MulleObjCContainerFoundation</title>
<path fill="none" stroke="black" d="M1464.86,-217.1C1461.87,-216.7 1458.91,-216.34 1456,-216 1154.21,-181.26 1073.55,-207.21 766.72,-180.01"/>
<polygon fill="black" stroke="black" points="766.92,-176.52 756.65,-179.11 766.29,-183.49 766.92,-176.52"/>
</g>
<!-- MulleObjCKVCFoundation -->
<g id="node8" class="node">
<title>MulleObjCKVCFoundation</title>
<g id="a_node8"><a xlink:href="https://github.com/MulleFoundation/MulleObjCKVCFoundation@*" xlink:title="MulleObjCKVCFoundation">
<polygon fill="lightgrey" stroke="black" points="977.5,-180 774.5,-180 774.5,-144 977.5,-144 977.5,-180"/>
<text text-anchor="middle" x="876" y="-158.3" font-family="Times,serif" font-size="14.00">MulleObjCKVCFoundation</text>
</a>
</g>
</g>
<!-- MulleFoundationBase&#45;&gt;MulleObjCKVCFoundation -->
<g id="edge4" class="edge">
<title>MulleFoundationBase&#45;&gt;MulleObjCKVCFoundation</title>
<path fill="none" stroke="black" d="M1464.84,-217.19C1461.86,-216.77 1458.91,-216.37 1456,-216 1251.86,-189.97 1196.42,-203.4 987.64,-180.01"/>
<polygon fill="black" stroke="black" points="987.91,-176.52 977.58,-178.87 987.12,-183.48 987.91,-176.52"/>
</g>
<!-- MulleObjCLockFoundation -->
<g id="node9" class="node">
<title>MulleObjCLockFoundation</title>
<g id="a_node9"><a xlink:href="https://github.com/MulleFoundation/MulleObjCLockFoundation@*" xlink:title="MulleObjCLockFoundation">
<polygon fill="lightgrey" stroke="black" points="1202,-180 996,-180 996,-144 1202,-144 1202,-180"/>
<text text-anchor="middle" x="1099" y="-158.3" font-family="Times,serif" font-size="14.00">MulleObjCLockFoundation</text>
</a>
</g>
</g>
<!-- MulleFoundationBase&#45;&gt;MulleObjCLockFoundation -->
<g id="edge5" class="edge">
<title>MulleFoundationBase&#45;&gt;MulleObjCLockFoundation</title>
<path fill="none" stroke="black" d="M1464.81,-217.46C1461.84,-216.96 1458.89,-216.47 1456,-216 1350.56,-198.82 1321.53,-196.39 1212.25,-180.18"/>
<polygon fill="black" stroke="black" points="1212.54,-176.68 1202.13,-178.67 1211.51,-183.61 1212.54,-176.68"/>
</g>
<!-- MulleObjCMathFoundation -->
<g id="node10" class="node">
<title>MulleObjCMathFoundation</title>
<g id="a_node10"><a xlink:href="https://github.com/MulleFoundation/MulleObjCMathFoundation@*" xlink:title="MulleObjCMathFoundation">
<polygon fill="lightgrey" stroke="black" points="1430,-180 1220,-180 1220,-144 1430,-144 1430,-180"/>
<text text-anchor="middle" x="1325" y="-158.3" font-family="Times,serif" font-size="14.00">MulleObjCMathFoundation</text>
</a>
</g>
</g>
<!-- MulleFoundationBase&#45;&gt;MulleObjCMathFoundation -->
<g id="edge6" class="edge">
<title>MulleFoundationBase&#45;&gt;MulleObjCMathFoundation</title>
<path fill="none" stroke="black" d="M1496,-215.97C1464.01,-206.06 1423.52,-193.51 1389.96,-183.12"/>
<polygon fill="black" stroke="black" points="1390.83,-179.73 1380.24,-180.11 1388.76,-186.41 1390.83,-179.73"/>
</g>
<!-- MulleObjCPlistFoundation -->
<g id="node11" class="node">
<title>MulleObjCPlistFoundation</title>
<g id="a_node11"><a xlink:href="https://github.com/MulleFoundation/MulleObjCPlistFoundation@*" xlink:title="MulleObjCPlistFoundation">
<polygon fill="lightgrey" stroke="black" points="1653.5,-180 1448.5,-180 1448.5,-144 1653.5,-144 1653.5,-180"/>
<text text-anchor="middle" x="1551" y="-158.3" font-family="Times,serif" font-size="14.00">MulleObjCPlistFoundation</text>
</a>
</g>
</g>
<!-- MulleFoundationBase&#45;&gt;MulleObjCPlistFoundation -->
<g id="edge7" class="edge">
<title>MulleFoundationBase&#45;&gt;MulleObjCPlistFoundation</title>
<path fill="none" stroke="black" d="M1551,-215.7C1551,-207.98 1551,-198.71 1551,-190.11"/>
<polygon fill="black" stroke="black" points="1554.5,-190.1 1551,-180.1 1547.5,-190.1 1554.5,-190.1"/>
</g>
<!-- MulleObjCRegexFoundation -->
<g id="node12" class="node">
<title>MulleObjCRegexFoundation</title>
<g id="a_node12"><a xlink:href="https://github.com/MulleFoundation/MulleObjCRegexFoundation" xlink:title="MulleObjCRegexFoundation">
<polygon fill="lightgrey" stroke="black" points="1888.5,-180 1671.5,-180 1671.5,-144 1888.5,-144 1888.5,-180"/>
<text text-anchor="middle" x="1780" y="-158.3" font-family="Times,serif" font-size="14.00">MulleObjCRegexFoundation</text>
</a>
</g>
</g>
<!-- MulleFoundationBase&#45;&gt;MulleObjCRegexFoundation -->
<g id="edge8" class="edge">
<title>MulleFoundationBase&#45;&gt;MulleObjCRegexFoundation</title>
<path fill="none" stroke="black" d="M1606.73,-215.97C1639.14,-206.06 1680.18,-193.51 1714.18,-183.12"/>
<polygon fill="black" stroke="black" points="1715.48,-186.38 1724.02,-180.11 1713.44,-179.69 1715.48,-186.38"/>
</g>
<!-- MulleObjCStandardFoundation -->
<g id="node13" class="node">
<title>MulleObjCStandardFoundation</title>
<g id="a_node13"><a xlink:href="https://github.com/MulleFoundation/MulleObjCStandardFoundation@*" xlink:title="MulleObjCStandardFoundation">
<polygon fill="lightgrey" stroke="black" points="2145.5,-180 1906.5,-180 1906.5,-144 2145.5,-144 2145.5,-180"/>
<text text-anchor="middle" x="2026" y="-158.3" font-family="Times,serif" font-size="14.00">MulleObjCStandardFoundation</text>
</a>
</g>
</g>
<!-- MulleFoundationBase&#45;&gt;MulleObjCStandardFoundation -->
<g id="edge9" class="edge">
<title>MulleFoundationBase&#45;&gt;MulleObjCStandardFoundation</title>
<path fill="none" stroke="black" d="M1637.02,-220.32C1710.49,-209.5 1817.17,-193.78 1900.23,-181.54"/>
<polygon fill="black" stroke="black" points="1900.85,-184.98 1910.23,-180.06 1899.83,-178.06 1900.85,-184.98"/>
</g>
<!-- MulleObjCTimeFoundation -->
<g id="node14" class="node">
<title>MulleObjCTimeFoundation</title>
<g id="a_node14"><a xlink:href="https://github.com/MulleFoundation/MulleObjCTimeFoundation@*" xlink:title="MulleObjCTimeFoundation">
<polygon fill="lightgrey" stroke="black" points="2372,-180 2164,-180 2164,-144 2372,-144 2372,-180"/>
<text text-anchor="middle" x="2268" y="-158.3" font-family="Times,serif" font-size="14.00">MulleObjCTimeFoundation</text>
</a>
</g>
</g>
<!-- MulleFoundationBase&#45;&gt;MulleObjCTimeFoundation -->
<g id="edge10" class="edge">
<title>MulleFoundationBase&#45;&gt;MulleObjCTimeFoundation</title>
<path fill="none" stroke="black" d="M1637.19,-227.12C1752.47,-218.88 1963.45,-202.48 2153.78,-180.1"/>
<polygon fill="black" stroke="black" points="2154.46,-183.55 2163.97,-178.9 2153.63,-176.6 2154.46,-183.55"/>
</g>
<!-- MulleObjCUnicodeFoundation -->
<g id="node15" class="node">
<title>MulleObjCUnicodeFoundation</title>
<g id="a_node15"><a xlink:href="https://github.com/MulleFoundation/MulleObjCUnicodeFoundation@*" xlink:title="MulleObjCUnicodeFoundation">
<polygon fill="lightgrey" stroke="black" points="2621.5,-180 2390.5,-180 2390.5,-144 2621.5,-144 2621.5,-180"/>
<text text-anchor="middle" x="2506" y="-158.3" font-family="Times,serif" font-size="14.00">MulleObjCUnicodeFoundation</text>
</a>
</g>
</g>
<!-- MulleFoundationBase&#45;&gt;MulleObjCUnicodeFoundation -->
<g id="edge11" class="edge">
<title>MulleFoundationBase&#45;&gt;MulleObjCUnicodeFoundation</title>
<path fill="none" stroke="black" d="M1637.2,-229.53C1786.33,-223.07 2102.33,-207.42 2379.98,-180.06"/>
<polygon fill="black" stroke="black" points="2380.65,-183.51 2390.26,-179.04 2379.96,-176.54 2380.65,-183.51"/>
</g>
<!-- MulleObjCUUIDFoundation -->
<g id="node16" class="node">
<title>MulleObjCUUIDFoundation</title>
<g id="a_node16"><a xlink:href="https://github.com/MulleFoundation/MulleObjCUUIDFoundation@*" xlink:title="MulleObjCUUIDFoundation">
<polygon fill="lightgrey" stroke="black" points="2852.5,-180 2639.5,-180 2639.5,-144 2852.5,-144 2852.5,-180"/>
<text text-anchor="middle" x="2746" y="-158.3" font-family="Times,serif" font-size="14.00">MulleObjCUUIDFoundation</text>
</a>
</g>
</g>
<!-- MulleFoundationBase&#45;&gt;MulleObjCUUIDFoundation -->
<g id="edge12" class="edge">
<title>MulleFoundationBase&#45;&gt;MulleObjCUUIDFoundation</title>
<path fill="none" stroke="black" d="M1637.31,-231.63C1819.02,-228.11 2254.52,-216.41 2629,-180.14"/>
<polygon fill="black" stroke="black" points="2629.61,-183.6 2639.23,-179.15 2628.93,-176.63 2629.61,-183.6"/>
</g>
<!-- MulleObjCValueFoundation -->
<g id="node17" class="node">
<title>MulleObjCValueFoundation</title>
<g id="a_node17"><a xlink:href="https://github.com/MulleFoundation/MulleObjCValueFoundation@*" xlink:title="MulleObjCValueFoundation">
<polygon fill="lightgrey" stroke="black" points="3082,-180 2870,-180 2870,-144 3082,-144 3082,-180"/>
<text text-anchor="middle" x="2976" y="-158.3" font-family="Times,serif" font-size="14.00">MulleObjCValueFoundation</text>
</a>
</g>
</g>
<!-- MulleFoundationBase&#45;&gt;MulleObjCValueFoundation -->
<g id="edge13" class="edge">
<title>MulleFoundationBase&#45;&gt;MulleObjCValueFoundation</title>
<path fill="none" stroke="black" d="M1637.11,-232.72C1845.54,-231.35 2393.8,-223.61 2859.89,-180.15"/>
<polygon fill="black" stroke="black" points="2860.22,-183.63 2869.85,-179.21 2859.57,-176.66 2860.22,-183.63"/>
</g>
<!-- mulle&#45;objc&#45;cc -->
<g id="node18" class="node">
<title>mulle&#45;objc&#45;cc</title>
<g id="a_node18"><a xlink:href="https://github.com/mulle-cc/mulle-objc-cc" xlink:title="mulle&#45;objc&#45;cc">
<polygon fill="lightgrey" stroke="black" points="110,-108 0,-108 0,-72 110,-72 110,-108"/>
<text text-anchor="middle" x="55" y="-86.3" font-family="Times,serif" font-size="14.00">mulle&#45;objc&#45;cc</text>
</a>
</g>
</g>
<!-- MulleObjC&#45;&gt;mulle&#45;objc&#45;cc -->
<g id="edge16" class="edge">
<title>MulleObjC&#45;&gt;mulle&#45;objc&#45;cc</title>
<path fill="none" stroke="black" d="M163.02,-143.88C143.8,-134.47 119.77,-122.71 99.26,-112.67"/>
<polygon fill="black" stroke="black" points="100.64,-109.44 90.12,-108.19 97.56,-115.73 100.64,-109.44"/>
</g>
<!-- mulle&#45;objc&#45;debug -->
<g id="node19" class="node">
<title>mulle&#45;objc&#45;debug</title>
<g id="a_node19"><a xlink:href="https://github.com/mulle-objc/mulle-objc-debug" xlink:title="mulle&#45;objc&#45;debug">
<polygon fill="lightgrey" stroke="black" points="267.5,-108 128.5,-108 128.5,-72 267.5,-72 267.5,-108"/>
<text text-anchor="middle" x="198" y="-86.3" font-family="Times,serif" font-size="14.00">mulle&#45;objc&#45;debug</text>
</a>
</g>
</g>
<!-- MulleObjC&#45;&gt;mulle&#45;objc&#45;debug -->
<g id="edge17" class="edge">
<title>MulleObjC&#45;&gt;mulle&#45;objc&#45;debug</title>
<path fill="none" stroke="black" d="M198,-143.7C198,-135.98 198,-126.71 198,-118.11"/>
<polygon fill="black" stroke="black" points="201.5,-118.1 198,-108.1 194.5,-118.1 201.5,-118.1"/>
</g>
<!-- mulle&#45;objc&#45;runtime -->
<g id="node20" class="node">
<title>mulle&#45;objc&#45;runtime</title>
<g id="a_node20"><a xlink:href="https://github.com/mulle-objc/mulle-objc-runtime" xlink:title="mulle&#45;objc&#45;runtime">
<polygon fill="lightgrey" stroke="black" points="438,-108 286,-108 286,-72 438,-72 438,-108"/>
<text text-anchor="middle" x="362" y="-86.3" font-family="Times,serif" font-size="14.00">mulle&#45;objc&#45;runtime</text>
</a>
</g>
</g>
<!-- MulleObjC&#45;&gt;mulle&#45;objc&#45;runtime -->
<g id="edge18" class="edge">
<title>MulleObjC&#45;&gt;mulle&#45;objc&#45;runtime</title>
<path fill="none" stroke="black" d="M238.12,-143.88C260.64,-134.26 288.92,-122.19 312.77,-112.01"/>
<polygon fill="black" stroke="black" points="314.19,-115.21 322.01,-108.07 311.44,-108.77 314.19,-115.21"/>
</g>
<!-- mulle&#45;objc&#45;runtime&#45;&gt;mulle&#45;core -->
<g id="edge19" class="edge">
<title>mulle&#45;objc&#45;runtime&#45;&gt;mulle&#45;core</title>
<path fill="none" stroke="black" d="M362,-71.7C362,-63.98 362,-54.71 362,-46.11"/>
<polygon fill="black" stroke="black" points="365.5,-46.1 362,-36.1 358.5,-46.1 365.5,-46.1"/>
</g>
</g>
</svg>
