<?xml version="1.0" encoding="UTF-8" standalone="no"?>
<!DOCTYPE svg PUBLIC "-//W3C//DTD SVG 1.1//EN"
 "http://www.w3.org/Graphics/SVG/1.1/DTD/svg11.dtd">
<!-- Generated by graphviz version 2.43.0 (0)
 -->
<!-- Title: sourcetree Pages: 1 -->
<svg width="2855pt" height="332pt"
 viewBox="0.00 0.00 2855.00 332.00" xmlns="http://www.w3.org/2000/svg" xmlns:xlink="http://www.w3.org/1999/xlink">
<g id="graph0" class="graph" transform="scale(1 1) rotate(0) translate(4 328)">
<title>sourcetree</title>
<polygon fill="white" stroke="transparent" points="-4,4 -4,-328 2851,-328 2851,4 -4,4"/>
<!-- MulleObjCJSMNFoundation -->
<g id="node1" class="node">
<title>MulleObjCJSMNFoundation</title>
<polygon fill="yellow" stroke="black" points="1476,-324 1262,-324 1262,-288 1476,-288 1476,-324"/>
<text text-anchor="middle" x="1369" y="-302.3" font-family="Times,serif" font-size="14.00">MulleObjCJSMNFoundation</text>
</g>
<!-- jsmn.h -->
<g id="node2" class="node">
<title>jsmn.h</title>
<g id="a_node2"><a xlink:href="https://raw.githubusercontent.com/mulle-nat//jsmn" xlink:title="jsmn.h">
<polygon fill="lightgrey" stroke="black" points="1333.5,-252 1268.5,-252 1268.5,-216 1333.5,-216 1333.5,-252"/>
<text text-anchor="middle" x="1301" y="-230.3" font-family="Times,serif" font-size="14.00">jsmn.h</text>
</a>
</g>
</g>
<!-- MulleObjCJSMNFoundation&#45;&gt;jsmn.h -->
<g id="edge13" class="edge">
<title>MulleObjCJSMNFoundation&#45;&gt;jsmn.h</title>
<path fill="none" stroke="black" d="M1352.19,-287.7C1343.87,-279.14 1333.69,-268.66 1324.61,-259.3"/>
<polygon fill="black" stroke="black" points="1327.09,-256.84 1317.62,-252.1 1322.07,-261.72 1327.09,-256.84"/>
</g>
<!-- MulleFoundationBase -->
<g id="node4" class="node">
<title>MulleFoundationBase</title>
<g id="a_node4"><a xlink:href="https://github.com/MulleFoundation/MulleFoundationBase" xlink:title="MulleFoundationBase">
<polygon fill="lightgrey" stroke="black" points="1524,-252 1352,-252 1352,-216 1524,-216 1524,-252"/>
<text text-anchor="middle" x="1438" y="-230.3" font-family="Times,serif" font-size="14.00">MulleFoundationBase</text>
</a>
</g>
</g>
<!-- MulleObjCJSMNFoundation&#45;&gt;MulleFoundationBase -->
<g id="edge14" class="edge">
<title>MulleObjCJSMNFoundation&#45;&gt;MulleFoundationBase</title>
<path fill="none" stroke="black" d="M1386.06,-287.7C1394.5,-279.14 1404.82,-268.66 1414.04,-259.3"/>
<polygon fill="black" stroke="black" points="1416.61,-261.68 1421.14,-252.1 1411.63,-256.77 1416.61,-261.68"/>
</g>
<!-- mulle&#45;core -->
<g id="node3" class="node">
<title>mulle&#45;core</title>
<g id="a_node3"><a xlink:href="https://github.com/mulle-core/mulle-core" xlink:title="mulle&#45;core">
<polygon fill="lightgrey" stroke="black" points="408,-36 316,-36 316,0 408,0 408,-36"/>
<text text-anchor="middle" x="362" y="-14.3" font-family="Times,serif" font-size="14.00">mulle&#45;core</text>
</a>
</g>
</g>
<!-- MulleObjC -->
<g id="node5" class="node">
<title>MulleObjC</title>
<g id="a_node5"><a xlink:href="https://github.com/mulle-objc/MulleObjC" xlink:title="MulleObjC">
<polygon fill="lightgrey" stroke="black" points="244,-180 152,-180 152,-144 244,-144 244,-180"/>
<text text-anchor="middle" x="198" y="-158.3" font-family="Times,serif" font-size="14.00">MulleObjC</text>
</a>
</g>
</g>
<!-- MulleFoundationBase&#45;&gt;MulleObjC -->
<g id="edge1" class="edge">
<title>MulleFoundationBase&#45;&gt;MulleObjC</title>
<path fill="none" stroke="black" d="M1351.86,-217.03C1348.88,-216.65 1345.92,-216.31 1343,-216 864.7,-165.56 733.56,-257.73 254.17,-179.69"/>
<polygon fill="black" stroke="black" points="254.66,-176.22 244.23,-178.05 253.53,-183.13 254.66,-176.22"/>
</g>
<!-- MulleObjCArchiverFoundation -->
<g id="node6" class="node">
<title>MulleObjCArchiverFoundation</title>
<g id="a_node6"><a xlink:href="https://github.com/MulleFoundation/MulleObjCArchiverFoundation" xlink:title="MulleObjCArchiverFoundation">
<polygon fill="lightgrey" stroke="black" points="495.5,-180 262.5,-180 262.5,-144 495.5,-144 495.5,-180"/>
<text text-anchor="middle" x="379" y="-158.3" font-family="Times,serif" font-size="14.00">MulleObjCArchiverFoundation</text>
</a>
</g>
</g>
<!-- MulleFoundationBase&#45;&gt;MulleObjCArchiverFoundation -->
<g id="edge2" class="edge">
<title>MulleFoundationBase&#45;&gt;MulleObjCArchiverFoundation</title>
<path fill="none" stroke="black" d="M1351.86,-217.07C1348.87,-216.68 1345.91,-216.32 1343,-216 975.72,-175.43 878.04,-212.3 505.63,-180"/>
<polygon fill="black" stroke="black" points="505.93,-176.51 495.66,-179.12 505.31,-183.48 505.93,-176.51"/>
</g>
<!-- MulleObjCContainerFoundation -->
<g id="node7" class="node">
<title>MulleObjCContainerFoundation</title>
<g id="a_node7"><a xlink:href="https://github.com/MulleFoundation/MulleObjCContainerFoundation" xlink:title="MulleObjCContainerFoundation">
<polygon fill="lightgrey" stroke="black" points="756.5,-180 513.5,-180 513.5,-144 756.5,-144 756.5,-180"/>
<text text-anchor="middle" x="635" y="-158.3" font-family="Times,serif" font-size="14.00">MulleObjCContainerFoundation</text>
</a>
</g>
</g>
<!-- MulleFoundationBase&#45;&gt;MulleObjCContainerFoundation -->
<g id="edge3" class="edge">
<title>MulleFoundationBase&#45;&gt;MulleObjCContainerFoundation</title>
<path fill="none" stroke="black" d="M1351.85,-217.14C1348.87,-216.73 1345.91,-216.35 1343,-216 1091.13,-185.71 1023.48,-204.07 766.65,-180.02"/>
<polygon fill="black" stroke="black" points="766.94,-176.53 756.65,-179.07 766.27,-183.5 766.94,-176.53"/>
</g>
<!-- MulleObjCKVCFoundation -->
<g id="node8" class="node">
<title>MulleObjCKVCFoundation</title>
<g id="a_node8"><a xlink:href="https://github.com/MulleFoundation/MulleObjCKVCFoundation" xlink:title="MulleObjCKVCFoundation">
<polygon fill="lightgrey" stroke="black" points="977.5,-180 774.5,-180 774.5,-144 977.5,-144 977.5,-180"/>
<text text-anchor="middle" x="876" y="-158.3" font-family="Times,serif" font-size="14.00">MulleObjCKVCFoundation</text>
</a>
</g>
</g>
<!-- MulleFoundationBase&#45;&gt;MulleObjCKVCFoundation -->
<g id="edge4" class="edge">
<title>MulleFoundationBase&#45;&gt;MulleObjCKVCFoundation</title>
<path fill="none" stroke="black" d="M1351.83,-217.28C1348.85,-216.84 1345.9,-216.41 1343,-216 1188.73,-194.43 1146.48,-199.81 987.72,-180.05"/>
<polygon fill="black" stroke="black" points="987.95,-176.55 977.59,-178.77 987.08,-183.49 987.95,-176.55"/>
</g>
<!-- MulleObjCLockFoundation -->
<g id="node9" class="node">
<title>MulleObjCLockFoundation</title>
<g id="a_node9"><a xlink:href="https://github.com/MulleFoundation/MulleObjCLockFoundation" xlink:title="MulleObjCLockFoundation">
<polygon fill="lightgrey" stroke="black" points="1202,-180 996,-180 996,-144 1202,-144 1202,-180"/>
<text text-anchor="middle" x="1099" y="-158.3" font-family="Times,serif" font-size="14.00">MulleObjCLockFoundation</text>
</a>
</g>
</g>
<!-- MulleFoundationBase&#45;&gt;MulleObjCLockFoundation -->
<g id="edge5" class="edge">
<title>MulleFoundationBase&#45;&gt;MulleObjCLockFoundation</title>
<path fill="none" stroke="black" d="M1355.5,-215.97C1305.99,-205.74 1242.88,-192.71 1191.65,-182.13"/>
<polygon fill="black" stroke="black" points="1192.07,-178.64 1181.57,-180.05 1190.66,-185.5 1192.07,-178.64"/>
</g>
<!-- MulleObjCMathFoundation -->
<g id="node10" class="node">
<title>MulleObjCMathFoundation</title>
<g id="a_node10"><a xlink:href="https://github.com/MulleFoundation/MulleObjCMathFoundation" xlink:title="MulleObjCMathFoundation">
<polygon fill="lightgrey" stroke="black" points="1430,-180 1220,-180 1220,-144 1430,-144 1430,-180"/>
<text text-anchor="middle" x="1325" y="-158.3" font-family="Times,serif" font-size="14.00">MulleObjCMathFoundation</text>
</a>
</g>
</g>
<!-- MulleFoundationBase&#45;&gt;MulleObjCMathFoundation -->
<g id="edge6" class="edge">
<title>MulleFoundationBase&#45;&gt;MulleObjCMathFoundation</title>
<path fill="none" stroke="black" d="M1410.36,-215.88C1395.58,-206.72 1377.21,-195.34 1361.3,-185.48"/>
<polygon fill="black" stroke="black" points="1363.09,-182.48 1352.75,-180.19 1359.41,-188.43 1363.09,-182.48"/>
</g>
<!-- MulleObjCPlistFoundation -->
<g id="node11" class="node">
<title>MulleObjCPlistFoundation</title>
<g id="a_node11"><a xlink:href="https://github.com/MulleFoundation/MulleObjCPlistFoundation" xlink:title="MulleObjCPlistFoundation">
<polygon fill="lightgrey" stroke="black" points="1653.5,-180 1448.5,-180 1448.5,-144 1653.5,-144 1653.5,-180"/>
<text text-anchor="middle" x="1551" y="-158.3" font-family="Times,serif" font-size="14.00">MulleObjCPlistFoundation</text>
</a>
</g>
</g>
<!-- MulleFoundationBase&#45;&gt;MulleObjCPlistFoundation -->
<g id="edge7" class="edge">
<title>MulleFoundationBase&#45;&gt;MulleObjCPlistFoundation</title>
<path fill="none" stroke="black" d="M1465.64,-215.88C1480.42,-206.72 1498.79,-195.34 1514.7,-185.48"/>
<polygon fill="black" stroke="black" points="1516.59,-188.43 1523.25,-180.19 1512.91,-182.48 1516.59,-188.43"/>
</g>
<!-- MulleObjCStandardFoundation -->
<g id="node12" class="node">
<title>MulleObjCStandardFoundation</title>
<g id="a_node12"><a xlink:href="https://github.com/MulleFoundation/MulleObjCStandardFoundation" xlink:title="MulleObjCStandardFoundation">
<polygon fill="lightgrey" stroke="black" points="1910.5,-180 1671.5,-180 1671.5,-144 1910.5,-144 1910.5,-180"/>
<text text-anchor="middle" x="1791" y="-158.3" font-family="Times,serif" font-size="14.00">MulleObjCStandardFoundation</text>
</a>
</g>
</g>
<!-- MulleFoundationBase&#45;&gt;MulleObjCStandardFoundation -->
<g id="edge8" class="edge">
<title>MulleFoundationBase&#45;&gt;MulleObjCStandardFoundation</title>
<path fill="none" stroke="black" d="M1523.9,-215.97C1575.68,-205.7 1641.73,-192.6 1695.19,-182"/>
<polygon fill="black" stroke="black" points="1695.89,-185.43 1705.02,-180.05 1694.53,-178.56 1695.89,-185.43"/>
</g>
<!-- MulleObjCTimeFoundation -->
<g id="node13" class="node">
<title>MulleObjCTimeFoundation</title>
<g id="a_node13"><a xlink:href="https://github.com/MulleFoundation/MulleObjCTimeFoundation" xlink:title="MulleObjCTimeFoundation">
<polygon fill="lightgrey" stroke="black" points="2137,-180 1929,-180 1929,-144 2137,-144 2137,-180"/>
<text text-anchor="middle" x="2033" y="-158.3" font-family="Times,serif" font-size="14.00">MulleObjCTimeFoundation</text>
</a>
</g>
</g>
<!-- MulleFoundationBase&#45;&gt;MulleObjCTimeFoundation -->
<g id="edge9" class="edge">
<title>MulleFoundationBase&#45;&gt;MulleObjCTimeFoundation</title>
<path fill="none" stroke="black" d="M1524.32,-224.55C1618.7,-215.08 1774.64,-198.74 1919.03,-180.1"/>
<polygon fill="black" stroke="black" points="1919.5,-183.57 1928.96,-178.81 1918.6,-176.63 1919.5,-183.57"/>
</g>
<!-- MulleObjCUnicodeFoundation -->
<g id="node14" class="node">
<title>MulleObjCUnicodeFoundation</title>
<g id="a_node14"><a xlink:href="https://github.com/MulleFoundation/MulleObjCUnicodeFoundation" xlink:title="MulleObjCUnicodeFoundation">
<polygon fill="lightgrey" stroke="black" points="2386.5,-180 2155.5,-180 2155.5,-144 2386.5,-144 2386.5,-180"/>
<text text-anchor="middle" x="2271" y="-158.3" font-family="Times,serif" font-size="14.00">MulleObjCUnicodeFoundation</text>
</a>
</g>
</g>
<!-- MulleFoundationBase&#45;&gt;MulleObjCUnicodeFoundation -->
<g id="edge10" class="edge">
<title>MulleFoundationBase&#45;&gt;MulleObjCUnicodeFoundation</title>
<path fill="none" stroke="black" d="M1524.25,-228.23C1655.77,-220.58 1914.56,-204.06 2145,-180.07"/>
<polygon fill="black" stroke="black" points="2145.67,-183.52 2155.26,-178.99 2144.94,-176.55 2145.67,-183.52"/>
</g>
<!-- MulleObjCUUIDFoundation -->
<g id="node15" class="node">
<title>MulleObjCUUIDFoundation</title>
<g id="a_node15"><a xlink:href="https://github.com/MulleFoundation/MulleObjCUUIDFoundation" xlink:title="MulleObjCUUIDFoundation">
<polygon fill="lightgrey" stroke="black" points="2617.5,-180 2404.5,-180 2404.5,-144 2617.5,-144 2617.5,-180"/>
<text text-anchor="middle" x="2511" y="-158.3" font-family="Times,serif" font-size="14.00">MulleObjCUUIDFoundation</text>
</a>
</g>
</g>
<!-- MulleFoundationBase&#45;&gt;MulleObjCUUIDFoundation -->
<g id="edge11" class="edge">
<title>MulleFoundationBase&#45;&gt;MulleObjCUUIDFoundation</title>
<path fill="none" stroke="black" d="M1524.08,-230.88C1690.37,-226.2 2067.49,-212.78 2394.09,-180.14"/>
<polygon fill="black" stroke="black" points="2394.62,-183.61 2404.22,-179.12 2393.92,-176.64 2394.62,-183.61"/>
</g>
<!-- MulleObjCValueFoundation -->
<g id="node16" class="node">
<title>MulleObjCValueFoundation</title>
<g id="a_node16"><a xlink:href="https://github.com/MulleFoundation/MulleObjCValueFoundation" xlink:title="MulleObjCValueFoundation">
<polygon fill="lightgrey" stroke="black" points="2847,-180 2635,-180 2635,-144 2847,-144 2847,-180"/>
<text text-anchor="middle" x="2741" y="-158.3" font-family="Times,serif" font-size="14.00">MulleObjCValueFoundation</text>
</a>
</g>
</g>
<!-- MulleFoundationBase&#45;&gt;MulleObjCValueFoundation -->
<g id="edge12" class="edge">
<title>MulleFoundationBase&#45;&gt;MulleObjCValueFoundation</title>
<path fill="none" stroke="black" d="M1524.01,-232.21C1718.51,-229.78 2207.19,-219.94 2624.69,-180.17"/>
<polygon fill="black" stroke="black" points="2625.23,-183.64 2634.85,-179.2 2624.56,-176.67 2625.23,-183.64"/>
</g>
<!-- mulle&#45;objc&#45;cc -->
<g id="node17" class="node">
<title>mulle&#45;objc&#45;cc</title>
<g id="a_node17"><a xlink:href="https://github.com/mulle-cc/mulle-objc-cc" xlink:title="mulle&#45;objc&#45;cc">
<polygon fill="lightgrey" stroke="black" points="110,-108 0,-108 0,-72 110,-72 110,-108"/>
<text text-anchor="middle" x="55" y="-86.3" font-family="Times,serif" font-size="14.00">mulle&#45;objc&#45;cc</text>
</a>
</g>
</g>
<!-- MulleObjC&#45;&gt;mulle&#45;objc&#45;cc -->
<g id="edge15" class="edge">
<title>MulleObjC&#45;&gt;mulle&#45;objc&#45;cc</title>
<path fill="none" stroke="black" d="M163.02,-143.88C143.8,-134.47 119.77,-122.71 99.26,-112.67"/>
<polygon fill="black" stroke="black" points="100.64,-109.44 90.12,-108.19 97.56,-115.73 100.64,-109.44"/>
</g>
<!-- mulle&#45;objc&#45;debug -->
<g id="node18" class="node">
<title>mulle&#45;objc&#45;debug</title>
<g id="a_node18"><a xlink:href="https://github.com/mulle-objc/mulle-objc-debug" xlink:title="mulle&#45;objc&#45;debug">
<polygon fill="lightgrey" stroke="black" points="267.5,-108 128.5,-108 128.5,-72 267.5,-72 267.5,-108"/>
<text text-anchor="middle" x="198" y="-86.3" font-family="Times,serif" font-size="14.00">mulle&#45;objc&#45;debug</text>
</a>
</g>
</g>
<!-- MulleObjC&#45;&gt;mulle&#45;objc&#45;debug -->
<g id="edge16" class="edge">
<title>MulleObjC&#45;&gt;mulle&#45;objc&#45;debug</title>
<path fill="none" stroke="black" d="M198,-143.7C198,-135.98 198,-126.71 198,-118.11"/>
<polygon fill="black" stroke="black" points="201.5,-118.1 198,-108.1 194.5,-118.1 201.5,-118.1"/>
</g>
<!-- mulle&#45;objc&#45;runtime -->
<g id="node19" class="node">
<title>mulle&#45;objc&#45;runtime</title>
<g id="a_node19"><a xlink:href="https://github.com/mulle-objc/mulle-objc-runtime" xlink:title="mulle&#45;objc&#45;runtime">
<polygon fill="lightgrey" stroke="black" points="438,-108 286,-108 286,-72 438,-72 438,-108"/>
<text text-anchor="middle" x="362" y="-86.3" font-family="Times,serif" font-size="14.00">mulle&#45;objc&#45;runtime</text>
</a>
</g>
</g>
<!-- MulleObjC&#45;&gt;mulle&#45;objc&#45;runtime -->
<g id="edge17" class="edge">
<title>MulleObjC&#45;&gt;mulle&#45;objc&#45;runtime</title>
<path fill="none" stroke="black" d="M238.12,-143.88C260.64,-134.26 288.92,-122.19 312.77,-112.01"/>
<polygon fill="black" stroke="black" points="314.19,-115.21 322.01,-108.07 311.44,-108.77 314.19,-115.21"/>
</g>
<!-- mulle&#45;objc&#45;runtime&#45;&gt;mulle&#45;core -->
<g id="edge18" class="edge">
<title>mulle&#45;objc&#45;runtime&#45;&gt;mulle&#45;core</title>
<path fill="none" stroke="black" d="M362,-71.7C362,-63.98 362,-54.71 362,-46.11"/>
<polygon fill="black" stroke="black" points="365.5,-46.1 362,-36.1 358.5,-46.1 365.5,-46.1"/>
</g>
</g>
</svg>
