<?xml version="1.0" encoding="UTF-8" standalone="no"?>
<!DOCTYPE svg PUBLIC "-//W3C//DTD SVG 1.1//EN"
 "http://www.w3.org/Graphics/SVG/1.1/DTD/svg11.dtd">
<!-- Generated by graphviz version 2.43.0 (0)
 -->
<!-- Title: sourcetree Pages: 1 -->
<svg width="2866pt" height="332pt"
 viewBox="0.00 0.00 2866.00 332.00" xmlns="http://www.w3.org/2000/svg" xmlns:xlink="http://www.w3.org/1999/xlink">
<g id="graph0" class="graph" transform="scale(1 1) rotate(0) translate(4 328)">
<title>sourcetree</title>
<polygon fill="white" stroke="transparent" points="-4,4 -4,-328 2862,-328 2862,4 -4,4"/>
<!-- MulleObjCJSMNFoundation -->
<g id="node1" class="node">
<title>MulleObjCJSMNFoundation</title>
<polygon fill="yellow" stroke="black" points="1479,-324 1265,-324 1265,-288 1479,-288 1479,-324"/>
<text text-anchor="middle" x="1372" y="-302.3" font-family="Times,serif" font-size="14.00">MulleObjCJSMNFoundation</text>
</g>
<!-- jsmn.h -->
<g id="node2" class="node">
<title>jsmn.h</title>
<g id="a_node2"><a xlink:href="https://raw.githubusercontent.com/mulle-nat/jsmn" xlink:title="jsmn.h">
<polygon fill="lightgrey" stroke="black" points="1336.5,-252 1271.5,-252 1271.5,-216 1336.5,-216 1336.5,-252"/>
<text text-anchor="middle" x="1304" y="-230.3" font-family="Times,serif" font-size="14.00">jsmn.h</text>
</a>
</g>
</g>
<!-- MulleObjCJSMNFoundation&#45;&gt;jsmn.h -->
<g id="edge13" class="edge">
<title>MulleObjCJSMNFoundation&#45;&gt;jsmn.h</title>
<path fill="none" stroke="black" d="M1355.19,-287.7C1346.87,-279.14 1336.69,-268.66 1327.61,-259.3"/>
<polygon fill="black" stroke="black" points="1330.09,-256.84 1320.62,-252.1 1325.07,-261.72 1330.09,-256.84"/>
</g>
<!-- MulleFoundationBase -->
<g id="node5" class="node">
<title>MulleFoundationBase</title>
<g id="a_node5"><a xlink:href="https://github.com/MulleFoundation/MulleFoundationBase" xlink:title="MulleFoundationBase">
<polygon fill="lightgrey" stroke="black" points="1527,-252 1355,-252 1355,-216 1527,-216 1527,-252"/>
<text text-anchor="middle" x="1441" y="-230.3" font-family="Times,serif" font-size="14.00">MulleFoundationBase</text>
</a>
</g>
</g>
<!-- MulleObjCJSMNFoundation&#45;&gt;MulleFoundationBase -->
<g id="edge14" class="edge">
<title>MulleObjCJSMNFoundation&#45;&gt;MulleFoundationBase</title>
<path fill="none" stroke="black" d="M1389.06,-287.7C1397.5,-279.14 1407.82,-268.66 1417.04,-259.3"/>
<polygon fill="black" stroke="black" points="1419.61,-261.68 1424.14,-252.1 1414.63,-256.77 1419.61,-261.68"/>
</g>
<!-- mulle&#45;core&#45;all&#45;load -->
<g id="node3" class="node">
<title>mulle&#45;core&#45;all&#45;load</title>
<g id="a_node3"><a xlink:href="https://github.com/mulle-core/mulle-core-all-load" xlink:title="mulle&#45;core&#45;all&#45;load">
<polygon fill="lightgrey" stroke="black" points="367,-36 219,-36 219,0 367,0 367,-36"/>
<text text-anchor="middle" x="293" y="-14.3" font-family="Times,serif" font-size="14.00">mulle&#45;core&#45;all&#45;load</text>
</a>
</g>
</g>
<!-- mulle&#45;core -->
<g id="node4" class="node">
<title>mulle&#45;core</title>
<g id="a_node4"><a xlink:href="https://github.com/mulle-core/mulle-core" xlink:title="mulle&#45;core">
<polygon fill="lightgrey" stroke="black" points="477,-36 385,-36 385,0 477,0 477,-36"/>
<text text-anchor="middle" x="431" y="-14.3" font-family="Times,serif" font-size="14.00">mulle&#45;core</text>
</a>
</g>
</g>
<!-- MulleObjC -->
<g id="node6" class="node">
<title>MulleObjC</title>
<g id="a_node6"><a xlink:href="https://github.com/mulle-objc/MulleObjC" xlink:title="MulleObjC">
<polygon fill="lightgrey" stroke="black" points="244,-180 152,-180 152,-144 244,-144 244,-180"/>
<text text-anchor="middle" x="198" y="-158.3" font-family="Times,serif" font-size="14.00">MulleObjC</text>
</a>
</g>
</g>
<!-- MulleFoundationBase&#45;&gt;MulleObjC -->
<g id="edge1" class="edge">
<title>MulleFoundationBase&#45;&gt;MulleObjC</title>
<path fill="none" stroke="black" d="M1354.86,-217.03C1351.88,-216.65 1348.92,-216.31 1346,-216 866.38,-165.45 734.89,-257.93 254.2,-179.69"/>
<polygon fill="black" stroke="black" points="254.66,-176.22 244.23,-178.05 253.53,-183.13 254.66,-176.22"/>
</g>
<!-- MulleObjCArchiverFoundation -->
<g id="node7" class="node">
<title>MulleObjCArchiverFoundation</title>
<g id="a_node7"><a xlink:href="https://github.com/MulleFoundation/MulleObjCArchiverFoundation@*" xlink:title="MulleObjCArchiverFoundation">
<polygon fill="lightgrey" stroke="black" points="495.5,-180 262.5,-180 262.5,-144 495.5,-144 495.5,-180"/>
<text text-anchor="middle" x="379" y="-158.3" font-family="Times,serif" font-size="14.00">MulleObjCArchiverFoundation</text>
</a>
</g>
</g>
<!-- MulleFoundationBase&#45;&gt;MulleObjCArchiverFoundation -->
<g id="edge2" class="edge">
<title>MulleFoundationBase&#45;&gt;MulleObjCArchiverFoundation</title>
<path fill="none" stroke="black" d="M1354.86,-217.07C1351.87,-216.68 1348.91,-216.32 1346,-216 977.41,-175.32 879.37,-212.38 505.67,-180"/>
<polygon fill="black" stroke="black" points="505.93,-176.51 495.66,-179.12 505.31,-183.48 505.93,-176.51"/>
</g>
<!-- MulleObjCContainerFoundation -->
<g id="node8" class="node">
<title>MulleObjCContainerFoundation</title>
<g id="a_node8"><a xlink:href="https://github.com/MulleFoundation/MulleObjCContainerFoundation@*" xlink:title="MulleObjCContainerFoundation">
<polygon fill="lightgrey" stroke="black" points="756.5,-180 513.5,-180 513.5,-144 756.5,-144 756.5,-180"/>
<text text-anchor="middle" x="635" y="-158.3" font-family="Times,serif" font-size="14.00">MulleObjCContainerFoundation</text>
</a>
</g>
</g>
<!-- MulleFoundationBase&#45;&gt;MulleObjCContainerFoundation -->
<g id="edge3" class="edge">
<title>MulleFoundationBase&#45;&gt;MulleObjCContainerFoundation</title>
<path fill="none" stroke="black" d="M1354.85,-217.14C1351.87,-216.73 1348.91,-216.35 1346,-216 1092.82,-185.59 1024.81,-204.15 766.7,-180.02"/>
<polygon fill="black" stroke="black" points="766.93,-176.53 756.65,-179.07 766.27,-183.5 766.93,-176.53"/>
</g>
<!-- MulleObjCKVCFoundation -->
<g id="node9" class="node">
<title>MulleObjCKVCFoundation</title>
<g id="a_node9"><a xlink:href="https://github.com/MulleFoundation/MulleObjCKVCFoundation@*" xlink:title="MulleObjCKVCFoundation">
<polygon fill="lightgrey" stroke="black" points="977.5,-180 774.5,-180 774.5,-144 977.5,-144 977.5,-180"/>
<text text-anchor="middle" x="876" y="-158.3" font-family="Times,serif" font-size="14.00">MulleObjCKVCFoundation</text>
</a>
</g>
</g>
<!-- MulleFoundationBase&#45;&gt;MulleObjCKVCFoundation -->
<g id="edge4" class="edge">
<title>MulleFoundationBase&#45;&gt;MulleObjCKVCFoundation</title>
<path fill="none" stroke="black" d="M1354.83,-217.28C1351.86,-216.83 1348.9,-216.4 1346,-216 1190.44,-194.31 1147.82,-199.9 987.8,-180.06"/>
<polygon fill="black" stroke="black" points="987.95,-176.55 977.59,-178.78 987.08,-183.49 987.95,-176.55"/>
</g>
<!-- MulleObjCMathFoundation -->
<g id="node10" class="node">
<title>MulleObjCMathFoundation</title>
<g id="a_node10"><a xlink:href="https://github.com/MulleFoundation/MulleObjCMathFoundation@*" xlink:title="MulleObjCMathFoundation">
<polygon fill="lightgrey" stroke="black" points="1206,-180 996,-180 996,-144 1206,-144 1206,-180"/>
<text text-anchor="middle" x="1101" y="-158.3" font-family="Times,serif" font-size="14.00">MulleObjCMathFoundation</text>
</a>
</g>
</g>
<!-- MulleFoundationBase&#45;&gt;MulleObjCMathFoundation -->
<g id="edge5" class="edge">
<title>MulleFoundationBase&#45;&gt;MulleObjCMathFoundation</title>
<path fill="none" stroke="black" d="M1358.26,-215.97C1308.6,-205.74 1245.3,-192.71 1193.92,-182.13"/>
<polygon fill="black" stroke="black" points="1194.31,-178.64 1183.81,-180.05 1192.9,-185.49 1194.31,-178.64"/>
</g>
<!-- MulleObjCPlistFoundation -->
<g id="node11" class="node">
<title>MulleObjCPlistFoundation</title>
<g id="a_node11"><a xlink:href="https://github.com/MulleFoundation/MulleObjCPlistFoundation@*" xlink:title="MulleObjCPlistFoundation">
<polygon fill="lightgrey" stroke="black" points="1429.5,-180 1224.5,-180 1224.5,-144 1429.5,-144 1429.5,-180"/>
<text text-anchor="middle" x="1327" y="-158.3" font-family="Times,serif" font-size="14.00">MulleObjCPlistFoundation</text>
</a>
</g>
</g>
<!-- MulleFoundationBase&#45;&gt;MulleObjCPlistFoundation -->
<g id="edge6" class="edge">
<title>MulleFoundationBase&#45;&gt;MulleObjCPlistFoundation</title>
<path fill="none" stroke="black" d="M1413.11,-215.88C1398.21,-206.72 1379.67,-195.34 1363.62,-185.48"/>
<polygon fill="black" stroke="black" points="1365.35,-182.44 1354.99,-180.19 1361.69,-188.41 1365.35,-182.44"/>
</g>
<!-- MulleObjCRegexFoundation -->
<g id="node12" class="node">
<title>MulleObjCRegexFoundation</title>
<g id="a_node12"><a xlink:href="https://github.com/MulleFoundation/MulleObjCRegexFoundation@*" xlink:title="MulleObjCRegexFoundation">
<polygon fill="lightgrey" stroke="black" points="1664.5,-180 1447.5,-180 1447.5,-144 1664.5,-144 1664.5,-180"/>
<text text-anchor="middle" x="1556" y="-158.3" font-family="Times,serif" font-size="14.00">MulleObjCRegexFoundation</text>
</a>
</g>
</g>
<!-- MulleFoundationBase&#45;&gt;MulleObjCRegexFoundation -->
<g id="edge7" class="edge">
<title>MulleFoundationBase&#45;&gt;MulleObjCRegexFoundation</title>
<path fill="none" stroke="black" d="M1469.13,-215.88C1484.17,-206.72 1502.87,-195.34 1519.06,-185.48"/>
<polygon fill="black" stroke="black" points="1521.04,-188.38 1527.76,-180.19 1517.4,-182.4 1521.04,-188.38"/>
</g>
<!-- MulleObjCStandardFoundation -->
<g id="node13" class="node">
<title>MulleObjCStandardFoundation</title>
<g id="a_node13"><a xlink:href="https://github.com/MulleFoundation/MulleObjCStandardFoundation@*" xlink:title="MulleObjCStandardFoundation">
<polygon fill="lightgrey" stroke="black" points="1921.5,-180 1682.5,-180 1682.5,-144 1921.5,-144 1921.5,-180"/>
<text text-anchor="middle" x="1802" y="-158.3" font-family="Times,serif" font-size="14.00">MulleObjCStandardFoundation</text>
</a>
</g>
</g>
<!-- MulleFoundationBase&#45;&gt;MulleObjCStandardFoundation -->
<g id="edge8" class="edge">
<title>MulleFoundationBase&#45;&gt;MulleObjCStandardFoundation</title>
<path fill="none" stroke="black" d="M1527.01,-216.32C1580.33,-205.98 1648.96,-192.68 1704.32,-181.94"/>
<polygon fill="black" stroke="black" points="1704.99,-185.38 1714.14,-180.04 1703.66,-178.5 1704.99,-185.38"/>
</g>
<!-- MulleObjCTimeFoundation -->
<g id="node14" class="node">
<title>MulleObjCTimeFoundation</title>
<g id="a_node14"><a xlink:href="https://github.com/MulleFoundation/MulleObjCTimeFoundation@*" xlink:title="MulleObjCTimeFoundation">
<polygon fill="lightgrey" stroke="black" points="2148,-180 1940,-180 1940,-144 2148,-144 2148,-180"/>
<text text-anchor="middle" x="2044" y="-158.3" font-family="Times,serif" font-size="14.00">MulleObjCTimeFoundation</text>
</a>
</g>
</g>
<!-- MulleFoundationBase&#45;&gt;MulleObjCTimeFoundation -->
<g id="edge9" class="edge">
<title>MulleFoundationBase&#45;&gt;MulleObjCTimeFoundation</title>
<path fill="none" stroke="black" d="M1527.43,-224.75C1623.23,-215.35 1782.56,-198.99 1929.83,-180.12"/>
<polygon fill="black" stroke="black" points="1930.49,-183.57 1939.97,-178.82 1929.6,-176.62 1930.49,-183.57"/>
</g>
<!-- MulleObjCUnicodeFoundation -->
<g id="node15" class="node">
<title>MulleObjCUnicodeFoundation</title>
<g id="a_node15"><a xlink:href="https://github.com/MulleFoundation/MulleObjCUnicodeFoundation@*" xlink:title="MulleObjCUnicodeFoundation">
<polygon fill="lightgrey" stroke="black" points="2397.5,-180 2166.5,-180 2166.5,-144 2397.5,-144 2397.5,-180"/>
<text text-anchor="middle" x="2282" y="-158.3" font-family="Times,serif" font-size="14.00">MulleObjCUnicodeFoundation</text>
</a>
</g>
</g>
<!-- MulleFoundationBase&#45;&gt;MulleObjCUnicodeFoundation -->
<g id="edge10" class="edge">
<title>MulleFoundationBase&#45;&gt;MulleObjCUnicodeFoundation</title>
<path fill="none" stroke="black" d="M1527.12,-228.33C1659.84,-220.77 1922.57,-204.28 2156.21,-180.04"/>
<polygon fill="black" stroke="black" points="2156.67,-183.51 2166.26,-179 2155.95,-176.55 2156.67,-183.51"/>
</g>
<!-- MulleObjCUUIDFoundation -->
<g id="node16" class="node">
<title>MulleObjCUUIDFoundation</title>
<g id="a_node16"><a xlink:href="https://github.com/MulleFoundation/MulleObjCUUIDFoundation@*" xlink:title="MulleObjCUUIDFoundation">
<polygon fill="lightgrey" stroke="black" points="2628.5,-180 2415.5,-180 2415.5,-144 2628.5,-144 2628.5,-180"/>
<text text-anchor="middle" x="2522" y="-158.3" font-family="Times,serif" font-size="14.00">MulleObjCUUIDFoundation</text>
</a>
</g>
</g>
<!-- MulleFoundationBase&#45;&gt;MulleObjCUUIDFoundation -->
<g id="edge11" class="edge">
<title>MulleFoundationBase&#45;&gt;MulleObjCUUIDFoundation</title>
<path fill="none" stroke="black" d="M1527.14,-230.93C1694.48,-226.33 2075.31,-213.02 2404.99,-180.15"/>
<polygon fill="black" stroke="black" points="2405.62,-183.61 2415.22,-179.13 2404.92,-176.64 2405.62,-183.61"/>
</g>
<!-- MulleObjCValueFoundation -->
<g id="node17" class="node">
<title>MulleObjCValueFoundation</title>
<g id="a_node17"><a xlink:href="https://github.com/MulleFoundation/MulleObjCValueFoundation@*" xlink:title="MulleObjCValueFoundation">
<polygon fill="lightgrey" stroke="black" points="2858,-180 2646,-180 2646,-144 2858,-144 2858,-180"/>
<text text-anchor="middle" x="2752" y="-158.3" font-family="Times,serif" font-size="14.00">MulleObjCValueFoundation</text>
</a>
</g>
</g>
<!-- MulleFoundationBase&#45;&gt;MulleObjCValueFoundation -->
<g id="edge12" class="edge">
<title>MulleFoundationBase&#45;&gt;MulleObjCValueFoundation</title>
<path fill="none" stroke="black" d="M1527.22,-232.25C1722.78,-229.88 2215.1,-220.17 2635.62,-180.18"/>
<polygon fill="black" stroke="black" points="2636.23,-183.64 2645.85,-179.2 2635.56,-176.67 2636.23,-183.64"/>
</g>
<!-- mulle&#45;objc&#45;cc -->
<g id="node18" class="node">
<title>mulle&#45;objc&#45;cc</title>
<g id="a_node18"><a xlink:href="https://github.com/mulle-cc/mulle-objc-cc" xlink:title="mulle&#45;objc&#45;cc">
<polygon fill="lightgrey" stroke="black" points="110,-108 0,-108 0,-72 110,-72 110,-108"/>
<text text-anchor="middle" x="55" y="-86.3" font-family="Times,serif" font-size="14.00">mulle&#45;objc&#45;cc</text>
</a>
</g>
</g>
<!-- MulleObjC&#45;&gt;mulle&#45;objc&#45;cc -->
<g id="edge15" class="edge">
<title>MulleObjC&#45;&gt;mulle&#45;objc&#45;cc</title>
<path fill="none" stroke="black" d="M163.02,-143.88C143.8,-134.47 119.77,-122.71 99.26,-112.67"/>
<polygon fill="black" stroke="black" points="100.64,-109.44 90.12,-108.19 97.56,-115.73 100.64,-109.44"/>
</g>
<!-- mulle&#45;objc&#45;debug -->
<g id="node19" class="node">
<title>mulle&#45;objc&#45;debug</title>
<g id="a_node19"><a xlink:href="https://github.com/mulle-objc/mulle-objc-debug" xlink:title="mulle&#45;objc&#45;debug">
<polygon fill="lightgrey" stroke="black" points="267.5,-108 128.5,-108 128.5,-72 267.5,-72 267.5,-108"/>
<text text-anchor="middle" x="198" y="-86.3" font-family="Times,serif" font-size="14.00">mulle&#45;objc&#45;debug</text>
</a>
</g>
</g>
<!-- MulleObjC&#45;&gt;mulle&#45;objc&#45;debug -->
<g id="edge16" class="edge">
<title>MulleObjC&#45;&gt;mulle&#45;objc&#45;debug</title>
<path fill="none" stroke="black" d="M198,-143.7C198,-135.98 198,-126.71 198,-118.11"/>
<polygon fill="black" stroke="black" points="201.5,-118.1 198,-108.1 194.5,-118.1 201.5,-118.1"/>
</g>
<!-- mulle&#45;objc&#45;runtime -->
<g id="node20" class="node">
<title>mulle&#45;objc&#45;runtime</title>
<g id="a_node20"><a xlink:href="https://github.com/mulle-objc/mulle-objc-runtime" xlink:title="mulle&#45;objc&#45;runtime">
<polygon fill="lightgrey" stroke="black" points="438,-108 286,-108 286,-72 438,-72 438,-108"/>
<text text-anchor="middle" x="362" y="-86.3" font-family="Times,serif" font-size="14.00">mulle&#45;objc&#45;runtime</text>
</a>
</g>
</g>
<!-- MulleObjC&#45;&gt;mulle&#45;objc&#45;runtime -->
<g id="edge17" class="edge">
<title>MulleObjC&#45;&gt;mulle&#45;objc&#45;runtime</title>
<path fill="none" stroke="black" d="M238.12,-143.88C260.64,-134.26 288.92,-122.19 312.77,-112.01"/>
<polygon fill="black" stroke="black" points="314.19,-115.21 322.01,-108.07 311.44,-108.77 314.19,-115.21"/>
</g>
<!-- mulle&#45;objc&#45;runtime&#45;&gt;mulle&#45;core&#45;all&#45;load -->
<g id="edge19" class="edge">
<title>mulle&#45;objc&#45;runtime&#45;&gt;mulle&#45;core&#45;all&#45;load</title>
<path fill="none" stroke="black" d="M344.94,-71.7C336.5,-63.14 326.18,-52.66 316.96,-43.3"/>
<polygon fill="black" stroke="black" points="319.37,-40.77 309.86,-36.1 314.39,-45.68 319.37,-40.77"/>
</g>
<!-- mulle&#45;objc&#45;runtime&#45;&gt;mulle&#45;core -->
<g id="edge18" class="edge">
<title>mulle&#45;objc&#45;runtime&#45;&gt;mulle&#45;core</title>
<path fill="none" stroke="black" d="M379.06,-71.7C387.5,-63.14 397.82,-52.66 407.04,-43.3"/>
<polygon fill="black" stroke="black" points="409.61,-45.68 414.14,-36.1 404.63,-40.77 409.61,-45.68"/>
</g>
</g>
</svg>
